HIERARCHY
ROOT Hips
{
	OFFSET 0.000000 0.000000 0.000000
	CHANNELS 6 Xposition Yposition Zposition Xrotation Yrotation Zrotation
	JOINT LeftUpLeg_virtual
	{
		OFFSET 0.000000 0.000000 0.000000
		CHANNELS 3 Xrotation Yrotation Zrotation
		JOINT LeftUpLeg
		{
			OFFSET 10.205400 -3.823500 0.155100
			CHANNELS 3 Xrotation Yrotation Zrotation
			JOINT LeftLeg
			{
				OFFSET 0.708757 -12.982077 0.567790
				CHANNELS 3 Xrotation Yrotation Zrotation
				JOINT LeftFoot
				{
					OFFSET -0.708756 -10.717838 -2.184338
					CHANNELS 3 Xrotation Yrotation Zrotation
					JOINT LeftToeBase
					{
						OFFSET 0.108149 -7.191104 7.560241
						CHANNELS 3 Xrotation Yrotation Zrotation
						JOINT LeftToe_End
						{
							OFFSET 0.070230 0.081724 4.490308
							CHANNELS 3 Xrotation Yrotation Zrotation
							End Site
							{
								OFFSET 0 0 0
							}
						}
					}
				}
			}
		}
	}
	JOINT RightUpLeg_virtual
	{
		OFFSET 0.000000 0.000000 0.000000
		CHANNELS 3 Xrotation Yrotation Zrotation
		JOINT RightUpLeg
		{
			OFFSET -10.205400 -3.823500 0.005500
			CHANNELS 3 Xrotation Yrotation Zrotation
			JOINT RightLeg
			{
				OFFSET -0.708756 -12.982134 0.610632
				CHANNELS 3 Xrotation Yrotation Zrotation
				JOINT RightFoot
				{
					OFFSET 0.708754 -10.717769 -1.945823
					CHANNELS 3 Xrotation Yrotation Zrotation
					JOINT RightToeBase
					{
						OFFSET -0.108140 -7.191069 7.372968
						CHANNELS 3 Xrotation Yrotation Zrotation
						JOINT RightToe_End
						{
							OFFSET -0.070227 0.081735 4.479403
							CHANNELS 3 Xrotation Yrotation Zrotation
							End Site
							{
								OFFSET 0 0 0
							}
						}
					}
				}
			}
		}
	}
	JOINT Spine_virtual
	{
		OFFSET 0.000000 0.000000 0.000000
		CHANNELS 3 Xrotation Yrotation Zrotation
		JOINT Spine
		{
			OFFSET 0.000000 6.876099 0.125700
			CHANNELS 3 Xrotation Yrotation Zrotation
			JOINT Spine1
			{
				OFFSET 0.000000 5.730043 0.104720
				CHANNELS 3 Xrotation Yrotation Zrotation
				JOINT Spine1_split
				{
					OFFSET 0.000000 5.730043 0.104720
					CHANNELS 3 Xrotation Yrotation Zrotation
					JOINT Spine2
					{
						OFFSET 0.000000 5.730043 0.104720
						CHANNELS 3 Xrotation Yrotation Zrotation
						JOINT Neck_virtual
						{
							OFFSET 0.000000 0.000000 0.000000
							CHANNELS 3 Xrotation Yrotation Zrotation
							JOINT Neck
							{
								OFFSET 0.000000 10.314075 0.188496
								CHANNELS 3 Xrotation Yrotation Zrotation
								JOINT Head
								{
									OFFSET 0.000000 7.643700 -2.377400
									CHANNELS 3 Xrotation Yrotation Zrotation
									JOINT HeadTop_End
									{
										OFFSET 0.000000 43.788605 -13.619600
										CHANNELS 3 Xrotation Yrotation Zrotation
										End Site
										{
											OFFSET 0 0 0
										}
									}
								}
							}
						}
						JOINT LeftShoulder_virtual
						{
							OFFSET 0.000000 0.000000 0.000000
							CHANNELS 3 Xrotation Yrotation Zrotation
							JOINT LeftShoulder
							{
								OFFSET 2.196100 4.412489 0.087492
								CHANNELS 3 Xrotation Yrotation Zrotation
								JOINT LeftShoulder_split
								{
									OFFSET 2.196100 4.412489 0.087492
									CHANNELS 3 Xrotation Yrotation Zrotation
									JOINT LeftArm
									{
										OFFSET 8.771219 -2.981674 -0.026999
										CHANNELS 3 Xrotation Yrotation Zrotation
										JOINT LeftForeArm
										{
											OFFSET 8.512804 0.000000 -0.000000
											CHANNELS 3 Xrotation Yrotation Zrotation
											JOINT LeftHand
											{
												OFFSET 18.484802 0.000000 -0.000000
												CHANNELS 3 Xrotation Yrotation Zrotation
												End Site
												{
													OFFSET 0 0 0
												}
											}
										}
									}
								}
							}
						}
						JOINT RightShoulder_virtual
						{
							OFFSET 0.000000 0.000000 0.000000
							CHANNELS 3 Xrotation Yrotation Zrotation
							JOINT RightShoulder
							{
								OFFSET -2.196100 4.412496 0.070690
								CHANNELS 3 Xrotation Yrotation Zrotation
								JOINT RightShoulder_split
								{
									OFFSET -2.196100 4.412496 0.070690
									CHANNELS 3 Xrotation Yrotation Zrotation
									JOINT RightArm
									{
										OFFSET -8.771282 -2.981682 -0.094208
										CHANNELS 3 Xrotation Yrotation Zrotation
										JOINT RightForeArm
										{
											OFFSET -8.494598 0.000000 0.000000
											CHANNELS 3 Xrotation Yrotation Zrotation
											JOINT RightHand
											{
												OFFSET -18.483803 0.000000 0.000001
												CHANNELS 3 Xrotation Yrotation Zrotation
												End Site
												{
													OFFSET 0 0 0
												}
											}
										}
									}
								}
							}
						}
					}
				}
			}
		}
	}
}
MOTION
Frames: 11
Frame Time: 0.03333333
-5.792694 26.604773 -0.898239 0.000000 0.000000 0.000000 -7.227604 -46.839255 2.044381 -23.989344 7.946571 25.768345 53.577141 -9.680507 11.929204 -28.865390 -5.544171 -31.170931 -4.501065 0.350065 -0.443948 0.000000 0.000000 0.000000 -8.553938 -43.676270 2.587023 -21.104545 -4.992485 -42.797409 51.688105 -0.048663 -6.541804 -18.538621 -14.681659 34.629001 -1.997615 -0.140568 -0.722272 0.000000 0.000000 0.000000 -6.257655 -43.468960 3.208535 9.760621 6.905955 -2.125449 2.240043 0.576334 -2.241509 0.583064 -1.305793 0.752192 0.000000 0.000000 0.000000 2.824617 0.387427 -1.968990 1.068023 13.212133 1.921093 11.074071 17.198649 0.629254 0.000000 0.000000 0.000000 3.058280 0.280641 -2.320770 1.903002 -2.773414 -13.226725 -1.810236 -1.991144 0.427018 -68.891521 -0.603966 -39.959349 178.614720 -75.792178 179.757369 0.000000 0.000000 0.000000 3.782110 0.478779 -2.056686 3.413681 11.269892 -12.567050 -2.514805 -0.080245 0.729400 -66.027323 20.712069 88.115669 -19.518186 84.872217 17.305357 0.000000 0.000000 0.000000 
-6.321893 26.754335 -1.050371 0.000000 0.000000 0.000000 -7.879986 -48.232412 1.669879 -23.205872 6.730054 26.320520 53.749911 -8.946078 12.267752 -25.511633 -5.318437 -30.489876 -5.633416 0.507562 -1.819035 0.000000 0.000000 0.000000 -9.389058 -44.331486 2.186427 -20.990481 -6.087173 -42.602673 53.231612 -0.615094 -6.122622 -21.412868 -14.480131 33.405697 -0.571984 -0.040655 0.006963 0.000000 0.000000 0.000000 -6.950677 -44.141201 3.041425 9.702552 6.611546 -2.150774 2.240437 0.112130 -2.354407 0.625572 -0.935153 0.919691 0.000000 0.000000 0.000000 2.794348 -0.123846 -2.061777 1.511612 13.297347 1.843395 11.402766 17.596350 -0.208404 0.000000 0.000000 0.000000 3.076251 -0.204255 -2.409230 1.992330 -1.503860 -12.856757 -1.540739 -2.014706 0.566074 -68.454847 -1.145832 -41.400823 178.908595 -74.781446 -179.749269 0.000000 0.000000 0.000000 3.757550 -0.011534 -2.165677 3.319084 10.401794 -13.397191 -2.234151 -0.003315 0.529335 -66.807979 19.493210 88.443423 -22.397864 85.275240 20.029455 0.000000 0.000000 0.000000 
-6.824419 27.080574 -1.131437 0.000000 0.000000 0.000000 -8.314406 -48.881956 1.393807 -23.097497 5.686320 26.662810 53.955660 -8.634504 12.372920 -20.874426 -6.133142 -30.277477 -8.765049 0.605770 -2.574583 0.000000 0.000000 0.000000 -10.053975 -44.939353 1.850627 -20.706880 -7.553774 -42.186476 54.193952 -1.144098 -5.582150 -23.834259 -14.024250 32.104167 0.423307 0.195519 0.223261 0.000000 0.000000 0.000000 -7.202636 -44.705583 2.963655 9.499972 6.328695 -2.046403 2.163375 -0.369679 -2.412682 0.584866 -0.554303 0.889884 0.000000 0.000000 0.000000 2.730150 -0.614304 -2.100464 1.731348 13.356245 2.004861 11.485731 18.163643 -1.221750 0.000000 0.000000 0.000000 3.055514 -0.665100 -2.443295 2.046429 -0.815061 -12.443085 -1.106496 -1.707320 0.479561 -66.819980 -1.702766 -42.992250 179.280527 -73.880367 -179.317888 0.000000 0.000000 0.000000 3.649854 -0.477357 -2.211950 3.189643 9.447469 -13.757307 -1.939107 -0.066685 0.286347 -67.566390 18.071441 88.929275 -34.627597 86.859447 32.198806 0.000000 0.000000 0.000000 
-7.299985 27.481049 -1.145195 0.000000 0.000000 0.000000 -8.440968 -48.835111 1.343097 -23.533154 5.565650 26.431246 53.921379 -8.389529 11.929323 -17.117330 -7.499265 -29.671943 -12.454402 0.582273 -2.561291 0.000000 0.000000 0.000000 -10.408942 -45.487998 1.662752 -20.175576 -9.029713 -41.623607 54.080577 -1.365973 -5.203546 -24.962567 -13.303655 31.662407 0.043501 0.431958 0.003590 0.000000 0.000000 0.000000 -7.066316 -45.120598 3.029674 9.226277 6.142982 -1.850865 2.036022 -0.726799 -2.419648 0.504597 -0.267495 0.777529 0.000000 0.000000 0.000000 2.667772 -0.940301 -2.109007 1.666142 13.356975 2.332510 11.197830 18.754190 -2.242088 0.000000 0.000000 0.000000 2.994716 -0.967175 -2.433197 2.051227 -0.731934 -12.164219 -0.649360 -1.223294 0.137696 -63.872207 -2.245075 -44.520788 179.656487 -73.248205 -179.021116 0.000000 0.000000 0.000000 3.511942 -0.791034 -2.215186 3.031480 8.504870 -13.472789 -1.679113 -0.324863 0.078504 -67.443733 17.044170 89.318363 -105.331072 88.310781 102.975832 0.000000 0.000000 0.000000 
-7.744924 27.873156 -1.093124 0.000000 0.000000 0.000000 -8.307190 -48.315788 1.497150 -24.577047 6.352221 25.572051 54.035426 -8.248079 11.079357 -15.386017 -8.952762 -28.842953 -14.331009 0.370767 -1.891295 0.000000 0.000000 0.000000 -10.241781 -45.895053 1.740168 -19.190467 -10.388176 -40.670221 52.875961 -1.540236 -5.106225 -25.325421 -12.769246 31.420393 -0.702904 0.558382 -0.356167 0.000000 0.000000 0.000000 -6.622421 -45.348051 3.200118 8.985049 6.084659 -1.630136 1.877830 -0.852079 -2.356896 0.394883 -0.095502 0.628845 0.000000 0.000000 0.000000 2.611918 -1.015967 -2.083333 1.277049 13.268722 2.691219 10.597695 19.244741 -3.165760 0.000000 0.000000 0.000000 2.897474 -1.029440 -2.367591 2.016158 -1.174278 -12.079239 -0.414535 -0.646070 -0.158782 -59.779503 -2.524683 -45.698887 -179.804552 -72.967683 -178.627834 0.000000 0.000000 0.000000 3.384876 -0.867183 -2.149882 2.886931 7.748804 -12.551788 -1.481088 -0.579262 -0.059294 -66.057635 16.816245 89.437017 -162.223126 85.649766 160.084061 0.000000 0.000000 0.000000 
-8.176963 28.146624 -0.977882 0.000000 0.000000 0.000000 -7.910946 -47.693425 1.793618 -26.247672 7.634014 24.215549 54.623943 -8.351945 10.021000 -15.730363 -10.235113 -28.213577 -13.149525 0.020136 -0.689755 0.000000 0.000000 0.000000 -9.627526 -46.076579 2.038916 -17.871269 -11.473649 -39.350028 51.140696 -1.899401 -5.165618 -26.009526 -12.735959 30.522141 -0.485955 0.553268 -0.560710 0.000000 0.000000 0.000000 -5.981918 -45.463030 3.421273 8.833788 6.184911 -1.433967 1.715763 -0.707593 -2.197627 0.383696 -0.099920 0.500740 0.000000 0.000000 0.000000 2.530252 -0.815165 -1.978105 0.682962 13.100046 2.929819 9.779652 19.540686 -3.876085 0.000000 0.000000 0.000000 2.771708 -0.833488 -2.222382 1.954573 -1.862384 -12.066900 -0.349045 -0.147489 -0.264292 -55.400897 -2.319664 -46.456034 -179.295061 -73.103617 -178.283578 0.000000 0.000000 0.000000 3.305908 -0.662338 -2.002424 2.815959 7.374062 -11.148557 -1.481934 -0.809012 -0.028387 -63.455538 17.692263 89.228799 -172.846475 82.211900 171.018716 0.000000 0.000000 0.000000 
-8.612804 28.252577 -0.823866 0.000000 0.000000 0.000000 -7.290436 -47.489861 2.101187 -28.379902 8.972731 22.797570 55.494385 -8.564512 8.973707 -17.516683 -11.298490 -27.577749 -10.401906 -0.355059 1.057416 0.000000 0.000000 0.000000 -8.771021 -45.998288 2.387055 -16.607487 -12.131797 -37.856361 50.063156 -2.540947 -5.248223 -27.318880 -13.222938 28.933487 0.378695 0.423384 -0.512428 0.000000 0.000000 0.000000 -5.314864 -45.469112 3.605560 8.806419 6.420269 -1.323278 1.581992 -0.331291 -1.937075 0.419744 -0.348706 0.597907 0.000000 0.000000 0.000000 2.474515 -0.390959 -1.771873 0.026954 12.908914 2.999830 8.919895 19.614481 -4.329064 0.000000 0.000000 0.000000 2.634025 -0.426416 -1.975113 1.883807 -2.420744 -12.064040 -0.652639 0.091129 -0.256748 -51.578180 -1.385747 -46.848913 -178.982744 -73.358540 -178.116703 0.000000 0.000000 0.000000 3.234966 -0.250228 -1.752770 2.803519 7.415513 -9.542900 -1.637414 -0.871336 0.176265 -60.163653 19.473349 88.686714 -176.641259 79.225850 175.147852 0.000000 0.000000 0.000000 
-9.073126 28.204092 -0.689741 0.000000 0.000000 0.000000 -6.572511 -47.851701 2.267244 -30.156139 9.971596 21.393093 56.307212 -8.609057 8.185020 -20.003292 -11.955478 -26.462031 -8.348304 -0.688043 3.159085 0.000000 0.000000 0.000000 -7.926124 -45.880235 2.610135 -15.693685 -12.238995 -36.415085 50.277610 -3.152086 -5.366352 -28.575421 -13.985690 27.511268 0.720040 0.226494 -0.366398 0.000000 0.000000 0.000000 -4.673770 -45.501446 3.618116 8.873239 6.725100 -1.324241 1.470164 0.173682 -1.624527 0.557043 -0.768699 0.744634 0.000000 0.000000 0.000000 2.453612 0.137357 -1.478630 -0.511636 12.762797 2.903560 8.281861 19.594938 -4.556592 0.000000 0.000000 0.000000 2.487410 0.073880 -1.668516 1.818310 -2.614872 -11.873006 -1.143445 0.192699 -0.112545 -49.113575 0.285648 -47.157296 -178.894962 -73.448952 -178.128820 0.000000 0.000000 0.000000 3.150740 0.257641 -1.424678 2.854590 7.839232 -8.047061 -1.987092 -0.815474 0.512896 -56.886241 21.666526 87.885342 -178.332783 76.996948 177.134536 0.000000 0.000000 0.000000 
-9.560599 28.015318 -0.529182 0.000000 0.000000 0.000000 -5.783042 -48.635455 2.218067 -31.081162 10.308429 20.036442 56.827519 -8.092330 7.730560 -22.844046 -11.829132 -24.607522 -7.354299 -0.850110 4.451300 0.000000 0.000000 0.000000 -7.265006 -46.012532 2.534423 -15.302701 -11.767301 -35.261012 51.707326 -3.258336 -5.599153 -29.515474 -14.695029 27.150110 0.426345 0.044571 -0.269417 0.000000 0.000000 0.000000 -4.183386 -45.611846 3.381519 8.945553 7.051077 -1.414036 1.361846 0.676387 -1.325272 0.774416 -1.178092 0.881494 0.000000 0.000000 0.000000 2.464133 0.627974 -1.149773 -0.805155 12.701133 2.731923 7.970267 19.550998 -4.574377 0.000000 0.000000 0.000000 2.365768 0.546523 -1.349125 1.776431 -2.266654 -11.341949 -1.648976 0.072228 -0.192518 -48.353952 2.275488 -47.544001 -179.112518 -73.347209 -178.413038 0.000000 0.000000 0.000000 3.043434 0.722117 -1.102765 2.955112 8.509448 -6.917387 -2.415549 -0.715765 0.908944 -54.178225 23.735946 87.026732 -179.093530 75.373999 178.122864 0.000000 0.000000 0.000000 
-10.017607 27.740896 -0.425156 0.000000 0.000000 0.000000 -5.141637 -49.569019 1.869000 -31.476568 10.110497 19.099138 57.237846 -6.859642 7.484563 -25.823099 -10.802874 -22.189396 -6.562230 -0.717642 3.995440 0.000000 0.000000 0.000000 -6.743568 -46.545209 2.148111 -15.102947 -10.983146 -34.336826 53.667255 -2.830037 -6.009728 -30.579594 -15.250609 27.642851 0.181703 -0.056448 -0.251954 0.000000 0.000000 0.000000 -3.822485 -45.896815 2.931777 8.998437 7.346916 -1.546026 1.248099 1.065743 -1.095531 0.880160 -1.336988 0.931356 0.000000 0.000000 0.000000 2.462864 0.967707 -0.869485 -0.846372 12.737643 2.612864 8.044652 19.538504 -4.445736 0.000000 0.000000 0.000000 2.309255 0.896157 -1.068724 1.759659 -1.453829 -10.424892 -1.927242 -0.107207 -0.558551 -49.155181 4.019459 -48.070670 -179.576711 -73.029523 -178.932255 0.000000 0.000000 0.000000 2.912857 1.025851 -0.866775 3.088780 9.270662 -6.245291 -2.589103 -0.587130 1.132979 -52.335105 25.164101 86.342791 -179.494120 73.937262 178.707952 0.000000 0.000000 0.000000 
-10.409472 27.446987 -0.340691 0.000000 0.000000 0.000000 -4.828280 -50.451595 1.206476 -31.564182 9.687239 18.832928 57.889644 -5.191056 7.419909 -28.483745 -9.134227 -20.031464 -4.935914 -0.328848 1.977533 0.000000 0.000000 0.000000 -6.363499 -47.521523 1.539930 -14.754657 -10.204616 -33.506821 55.446308 -2.226718 -6.504622 -31.937541 -15.698046 28.115021 0.498212 -0.032687 -0.287510 0.000000 0.000000 0.000000 -3.534008 -46.414240 2.362118 9.001456 7.586874 -1.688376 1.127833 1.304845 -0.965248 1.036555 -1.147188 0.814723 0.000000 0.000000 0.000000 2.386893 1.104721 -0.695656 -0.655016 12.810147 2.608132 8.437804 19.638927 -4.241457 0.000000 0.000000 0.000000 2.307616 1.075942 -0.876716 1.756749 -0.386906 -9.129134 -1.795360 -0.324002 -0.909223 -51.143661 5.160905 -48.676897 179.743217 -72.775447 -179.649493 0.000000 0.000000 0.000000 2.814256 1.145583 -0.768734 3.260363 9.980062 -6.021254 -2.443456 -0.551707 1.112708 -51.327707 25.867306 85.902442 -179.717140 72.480656 179.065362 0.000000 0.000000 0.000000 
